<?xml version="1.0" encoding="utf-8"?>
<!-- Svg Vector Icons : http://www.sfont.cn -->
<!DOCTYPE svg PUBLIC "-//W3C//DTD SVG 1.1//EN" "http://www.w3.org/Graphics/SVG/1.1/DTD/svg11.dtd">
<svg version="1.1" xmlns="http://www.w3.org/2000/svg" xmlns:xlink="http://www.w3.org/1999/xlink" x="0px" y="0px" viewBox="0 0 1000 1000" enable-background="new 0 0 1000 1000" xml:space="preserve">
<metadata> Svg Vector Icons : http://www.sfont.cn </metadata>
<g><path d="M908.3,50.8H91.7C46.6,50.8,10,87.9,10,133.7v580.1c0,45.8,36.6,82.9,81.7,82.9h457.2l88.3-143.8l-58-30.7l47-44.3l-31.7-55.9l64.6-12.7l4.6-63.3l61.7,23l39.5-50.6l39.2,51.3l61.8-21.9l4.3,63.4l64.5,13.9l-32,55.3l46.8,45.2l-54.7,28l73,116.6c3.6-3.9,22.4-40.2,22.4-56.3V133.7C990,87.9,953.4,50.8,908.3,50.8z M500,543H173.3v-40.9H500V543z M622.5,420.4H173.3v-40.9h449.2V420.4z M826.7,297.7H173.3v-40.9h653.3V297.7L826.7,297.7z M839.5,712l-23,59.4l-52.6-38.7l-52.8,37.8l-22.6-59.8l-54.9,3.5L545,867.8l97.9-37.8l21.4,119.1l101.2-163.3l101.2,163.3L888,830l97.9,37.8l-80.5-150.4L839.5,712z M712.8,675.3l15.7,41.6l36.7-26.2l36.5,26.9l16-41.3l45.8,3.7l-9.8-43.2l40.4-20.6l-32.5-31.4l22.3-38.4l-44.8-9.6l-3-44.1l-42.9,15.2l-27.2-35.7l-27.4,35.2l-42.9-16l-3.2,44l-44.9,8.8l22,38.9l-32.7,30.8l40.3,21.3l-10.1,43L712.8,675.3z M746.1,546h46.1v87.1h-46.1V546z" fill="#F3ED5C"/></g>
</svg>